
mtllib 1.mtl

# vertices [98]

v 12.3651 -7.4278 -12.5
v 12.3651 -0.0468 -12.5
v 12.3651 -0.0468 12.5
v 12.3651 -7.4278 12.5
v -12.6349 -0.0468 12.5
v -12.6349 -7.4278 12.5
v -12.6349 -0.0468 -12.5
v 14.732 -9.5097 14.8669
v 14.732 -9.5097 -14.8669
v -15.0018 -9.5097 14.8669
v -12.6349 -7.4278 -12.5
v -15.0018 -9.5097 -14.8669
v 11.8253 -20.5185 -3.1525
v 11.8253 -20.5185 3.1526
v 11.8253 -45.6134 3.1526
v 11.8253 -45.6134 -3.1525
v 2.6459 -19.5487 12.7907
v -2.9156 -19.5487 12.7907
v -2.9156 -46.5771 12.7907
v 2.6459 -46.5771 12.7907
v 14.7321 -56.6184 -14.8669
v 14.7321 -56.6184 14.8669
v 12.3651 -58.483 12.5
v 12.3651 -58.483 -12.5
v -15.0018 -56.6184 14.8669
v -12.6349 -58.483 12.5
v 12.3651 -67.1532 12.5
v 12.3651 -67.1532 -12.5
v -12.6349 -67.1532 12.5
v 14.6751 -69.0147 14.8099
v 14.6751 -69.0147 -14.8099
v -14.9448 -69.0147 14.8099
v 14.6751 -83.3822 14.81
v 14.6751 -83.3822 -14.8099
v -14.9448 -83.3822 14.81
v -2.9238 -19.5474 14.8669
v 2.6477 -19.5474 14.8669
v -2.9238 -46.5778 14.8669
v 2.6477 -46.5778 14.8669
v 14.732 -20.517 3.1568
v 14.732 -20.517 -3.1571
v 14.7321 -45.614 3.1568
v 14.7321 -45.614 -3.1571
v 12.5064 -85.242 12.6413
v 12.5064 -85.242 -12.6412
v -12.7761 -85.242 12.6413
v 12.5064 -120.7734 12.6413
v 12.5064 -120.7734 -12.6412
v -12.7761 -120.7734 12.6413
v -16.5374 -4.2366 -11.1231
v -11.5374 -4.2366 -11.1231
v -11.5374 -4.2366 -16.1231
v -16.5374 -4.2366 -16.1231
v -16.5374 -24.1218 -11.1231
v -11.5374 -24.1218 -11.1231
v -11.5374 -24.1218 -16.1231
v -16.5374 -4.2366 16.4425
v -11.5374 -4.2366 16.4425
v -11.5374 -4.2366 11.4425
v -16.5374 -4.2366 11.4425
v -16.5374 -24.1218 16.4425
v -11.5374 -24.1218 16.4425
v -11.5374 -24.1218 11.4425
v 11.1972 -4.2366 16.4425
v 16.1972 -4.2366 16.4425
v 16.1972 -4.2366 11.4425
v 11.1972 -4.2366 11.4425
v 11.1972 -24.1218 16.4425
v 16.1972 -24.1218 16.4425
v 16.1972 -24.1218 11.4425
v 11.1972 -41.5658 16.4425
v 16.1972 -41.5658 16.4425
v 16.1972 -41.5658 11.4425
v 11.1972 -41.5658 11.4425
v 11.1972 -61.451 16.4425
v 16.1972 -61.451 16.4425
v 16.1972 -61.451 11.4425
v -16.5374 -41.5658 16.4425
v -11.5374 -41.5658 16.4425
v -11.5374 -41.5658 11.4425
v -16.5374 -41.5658 11.4425
v -16.5374 -61.451 16.4425
v -11.5374 -61.451 16.4425
v -11.5374 -61.451 11.4425
v 11.1972 -4.2366 -11.1231
v 16.1972 -4.2366 -11.1231
v 16.1972 -4.2366 -16.1231
v 11.1972 -4.2366 -16.1231
v 11.1972 -24.1218 -11.1231
v 16.1972 -24.1218 -11.1231
v 16.1972 -24.1218 -16.1231
v 11.1972 -41.5658 -11.1231
v 16.1972 -41.5658 -11.1231
v 16.1972 -41.5658 -16.1231
v 11.1972 -41.5658 -16.1231
v 11.1972 -61.451 -11.1231
v 16.1972 -61.451 -11.1231
v 16.1972 -61.451 -16.1231

# normals [50]

vn 0.8887 0.066 -0.4538
vn 0.7071 0.7071 0
vn 0.5773 0.5774 0.5774
vn 0.7061 0.0524 0.7061
vn 0 0.7071 0.7071
vn -0.4538 0.066 0.8887
vn 0 1 0
vn 0.7062 0.0501 0.7062
vn 0.897 0.0636 -0.4374
vn -0.4374 0.0636 0.897
vn -0.7034 0.1023 -0.7034
vn 0.5799 -0.5749 0.5773
vn 0.5798 -0.5749 -0.5773
vn 0.5785 0.5765 -0.577
vn 0.5785 0.5766 0.577
vn -0.5776 -0.5744 0.58
vn 0.5766 -0.5746 0.5808
vn 0.5764 0.5759 0.5798
vn -0.5774 0.5757 0.579
vn 0.9992 -0.0394 0
vn 0.706 -0.0557 0.706
vn 0.7059 -0.0586 0.7059
vn 0.9991 -0.0415 0
vn 0 -0.0394 0.9992
vn 0 -0.0415 0.9991
vn 0.7059 0.0573 0.7059
vn 0.9992 0.0405 0
vn 0 0.0405 0.9992
vn 0.7061 0.0545 0.7061
vn 0.9993 0.0386 0
vn 0 0.0386 0.9993
vn 0.7062 -0.0513 0.7062
vn 0.9993 -0.0363 0
vn 0 -0.0363 0.9993
vn 0.2989 -0.2999 0.906
vn -0.2991 -0.3007 0.9056
vn 0.2999 0.3001 0.9055
vn -0.3001 0.3009 0.9052
vn 0.9055 -0.3006 -0.2994
vn 0.9056 -0.3006 0.2994
vn 0.905 0.3009 -0.3007
vn 0.905 0.3009 0.3007
vn 0.7061 -0.0538 0.7061
vn 0.9993 -0.0381 0
vn 0 -0.0381 0.9993
vn 0.7071 0 0.7071
vn 1 0 0
vn 0 0 1
vn 0.5773 0.5774 0.5773
vn 0.5774 0.5774 0.5773

# uvs [212]

vt 0.9646 0.2778
vt 0.9684 0.7379
vt 0.7288 0.7394
vt 0.725 0.2793
vt 0.6691 0.8017
vt 0.3671 0.8017
vt 0.3671 0.629
vt 0.6691 0.629
vt 0.0011 0.7938
vt 0.1906 0.7938
vt 0.1906 0.9992
vt 0.0011 0.9992
vt 0.0334 0.9009
vt 0.0334 0.8709
vt 0.0598 0.868
vt 0.0598 0.9037
vt 0.0334 0.8564
vt 0.0334 0.8264
vt 0.0598 0.8236
vt 0.0598 0.8593
vt 0.0922 0.9182
vt 0.0922 0.9482
vt 0.0657 0.9511
vt 0.0657 0.9154
vt 0.0598 0.9182
vt 0.0598 0.9482
vt 0.0334 0.9511
vt 0.0334 0.9154
vt 0.028 0.0197
vt 0.1838 0.0209
vt 0.1764 0.3593
vt 0.0206 0.3581
vt 0.0213 0.0401
vt 0.1575 0.0384
vt 0.1748 0.3267
vt 0.0386 0.3284
vt 0.2307 0.5015
vt 0.2307 0.4019
vt 0.3475 0.4098
vt 0.3475 0.4935
vt 0.2307 0.502
vt 0.2307 0.4024
vt 0.3475 0.4103
vt 0.3475 0.494
vt 0.7526 0.6829
vt 0.9444 0.6817
vt 0.9426 0.4683
vt 0.7508 0.4695
vt 0.4992 0.6994
vt 0.4992 0.6391
vt 0.5223 0.6391
vt 0.5223 0.6994
vt 0.1165 0.9064
vt 0.1165 0.8764
vt 0.1402 0.8736
vt 0.1402 0.9091
vt 0.1165 0.8619
vt 0.1165 0.8319
vt 0.1402 0.8292
vt 0.1402 0.8647
vt 0.8588 0.5159
vt 0.7417 0.5166
vt 0.7412 0.452
vt 0.8583 0.4513
vt 0.5273 0.705
vt 0.5273 0.6335
vt 0.5657 0.6335
vt 0.5657 0.705
vt 0.3683 0.7051
vt 0.3683 0.6334
vt 0.3951 0.6625
vt 0.3951 0.6759
vt 0.4942 0.6334
vt 0.4673 0.6625
vt 0.4942 0.7051
vt 0.4673 0.6759
vt 0.8613 0.7834
vt 0.7437 0.7842
vt 0.7896 0.7344
vt 0.8146 0.7342
vt 0.742 0.5723
vt 0.7887 0.6215
vt 0.8595 0.5716
vt 0.8136 0.6214
vt 0.251 0.9772
vt 0.2048 0.9772
vt 0.2048 0.923
vt 0.251 0.923
vt 0.0972 0.9413
vt 0.165 0.9395
vt 0.1656 0.961
vt 0.0979 0.9629
vt 0.2397 0.9354
vt 0.24 0.9354
vt 0.2066 0.9635
vt 0.2062 0.9635
vt 0.202 0.9561
vt 0.2006 0.9561
vt 0.2006 0.9249
vt 0.202 0.9249
vt 0.2866 0.8628
vt 0.2006 0.8628
vt 0.2006 0.8315
vt 0.2866 0.8315
vt 0.0996 0.9324
vt 0.1651 0.9324
vt 0.165 0.9678
vt 0.0996 0.9678
vt 0.2866 0.9094
vt 0.2006 0.9094
vt 0.2006 0.8782
vt 0.2866 0.8782
vt 0.2308 0.5013
vt 0.2308 0.4021
vt 0.3472 0.4094
vt 0.3472 0.494
vt 0.2308 0.5018
vt 0.2308 0.4026
vt 0.3472 0.4099
vt 0.3472 0.4945
vt 0.8496 0.443
vt 0.7497 0.4436
vt 0.7483 0.2838
vt 0.8483 0.2832
vt 0.5707 0.6997
vt 0.5707 0.6387
vt 0.6656 0.6387
vt 0.6656 0.6997
vt 0.1806 0.8094
vt 0.1806 0.989
vt 0.0128 0.989
vt 0.0128 0.8094
vt 0.766 0.3499
vt 0.8209 0.3496
vt 0.8234 0.6517
vt 0.7686 0.6521
vt 0.8393 0.3495
vt 0.8941 0.3492
vt 0.8966 0.6513
vt 0.8418 0.6516
vt 0.1792 0.8085
vt 0.1792 0.9881
vt 0.0113 0.9881
vt 0.0113 0.8085
vt 0.5302 0.723
vt 0.5302 0.7351
vt 0.4771 0.7351
vt 0.4771 0.723
vt 0.8981 0.5093
vt 0.9178 0.5091
vt 0.9186 0.5986
vt 0.8988 0.5987
vt 0.014 0.9881
vt 0.014 0.8085
vt 0.1818 0.8085
vt 0.1818 0.9881
vt 0.4758 0.723
vt 0.4758 0.7351
vt 0.4227 0.7351
vt 0.4227 0.723
vt 0.2051 0.8978
vt 0.2249 0.8977
vt 0.2256 0.9871
vt 0.2059 0.9872
vt 0.0766 0.8929
vt 0.0726 0.8929
vt 0.0726 0.8869
vt 0.0766 0.8869
vt 0.4214 0.7529
vt 0.4214 0.765
vt 0.3683 0.765
vt 0.3683 0.7529
vt 0.264 0.8974
vt 0.2837 0.8973
vt 0.2845 0.9867
vt 0.2647 0.9869
vt 0.0786 0.9018
vt 0.0786 0.8958
vt 0.0827 0.8958
vt 0.0827 0.9018
vt 0.4214 0.723
vt 0.4214 0.7351
vt 0.3683 0.7351
vt 0.3683 0.723
vt 0.8988 0.6015
vt 0.9186 0.6014
vt 0.9194 0.6908
vt 0.8996 0.6909
vt 0.1806 0.8085
vt 0.1806 0.9881
vt 0.0128 0.9881
vt 0.0128 0.8085
vt 0.4214 0.7829
vt 0.4214 0.795
vt 0.3683 0.795
vt 0.3683 0.7829
vt 0.2317 0.8281
vt 0.2514 0.828
vt 0.2522 0.9174
vt 0.2324 0.9175
vt 0.0726 0.9018
vt 0.0726 0.8958
vt 0.0766 0.8958
vt 0.0766 0.9018
vt 0.4758 0.7529
vt 0.4758 0.765
vt 0.4227 0.765
vt 0.4227 0.7529
vt 0.2632 0.8052
vt 0.283 0.8051
vt 0.2837 0.8945
vt 0.264 0.8946

# objects [1]

g Box004
usemtl 01___Default

s 2
f 1/1/1 2/2/2 3/3/3 4/4/4
s 16
f 4/5/4 3/6/3 5/7/5 6/8/6
s 32
f 3/9/3 2/10/2 7/11/7 5/12/5
s off
f 1/13/1 4/14/4 8/15/8 9/16/9
f 4/17/4 6/18/6 10/19/10 8/20/8
f 6/21/6 11/22/11 12/23/11 10/24/10
f 11/25/11 1/26/1 9/27/9 12/28/11
f 13/29/12 14/30/13 15/31/14 16/32/15
f 17/33/16 18/34/17 19/35/18 20/36/19
f 21/37/20 22/38/21 23/39/22 24/40/23
f 22/41/21 25/42/24 26/43/25 23/44/22
f 24/45/23 23/46/22 27/47/26 28/48/27
f 23/49/22 26/50/25 29/51/28 27/52/26
f 28/53/27 27/54/26 30/55/29 31/56/30
f 27/57/26 29/58/28 32/59/31 30/60/29
f 31/61/30 30/62/29 33/63/32 34/64/33
f 30/65/29 32/66/31 35/67/34 33/68/32
f 8/69/8 10/70/10 36/71/35 37/72/36
f 10/70/10 25/73/24 38/74/37 36/71/35
f 25/73/24 22/75/21 39/76/38 38/74/37
f 22/75/21 8/69/8 37/72/36 39/76/38
f 9/77/9 8/78/8 40/79/39 41/80/40
f 8/78/8 22/81/21 42/82/41 40/79/39
f 22/81/21 21/83/20 43/84/42 42/82/41
f 21/83/20 9/77/9 41/80/40 43/84/42
f 37/85/36 36/86/35 18/87/17 17/88/16
f 36/86/35 38/86/37 19/87/18 18/87/17
f 38/89/37 39/90/38 20/91/19 19/92/18
f 39/93/38 37/94/36 17/95/16 20/96/19
f 41/97/40 40/98/39 14/99/13 13/100/12
f 40/101/39 42/102/41 15/103/14 14/104/13
f 42/105/41 43/106/42 16/107/15 15/108/14
f 43/109/42 41/110/40 13/111/12 16/112/15
f 34/113/33 33/114/32 44/115/43 45/116/44
f 33/117/32 35/118/34 46/119/45 44/120/43
f 45/121/44 44/122/43 47/123/46 48/124/47
f 44/125/43 46/126/45 49/127/48 47/128/46
s 4
f 50/129/5 51/130/3 52/131/2 53/132/7
s 8
f 54/133/48 55/134/46 51/135/3 50/136/5
s 16
f 55/137/46 56/138/47 52/139/2 51/140/3
s 4
f 57/141/5 58/142/49 59/143/2 60/144/7
s 8
f 61/145/48 62/146/46 58/147/49 57/148/5
s 16
f 62/149/46 63/150/47 59/151/2 58/152/49
s 4
f 64/153/5 65/154/50 66/155/2 67/156/7
s 8
f 68/157/48 69/158/46 65/159/50 64/160/5
s 16
f 69/161/46 70/162/47 66/163/2 65/164/50
s 4
f 71/165/5 72/166/50 73/167/2 74/168/7
s 8
f 75/169/48 76/170/46 72/171/50 71/172/5
s 16
f 76/173/46 77/174/47 73/175/2 72/176/50
s 4
f 78/177/5 79/178/50 80/179/2 81/180/7
s 8
f 82/181/48 83/182/46 79/183/50 78/184/5
s 16
f 83/185/46 84/186/47 80/187/2 79/188/50
s 4
f 85/189/5 86/190/49 87/191/2 88/192/7
s 8
f 89/193/48 90/194/46 86/195/49 85/196/5
s 16
f 90/197/46 91/198/47 87/199/2 86/200/49
s 4
f 92/201/5 93/202/49 94/203/2 95/204/7
s 8
f 96/205/48 97/206/46 93/207/49 92/208/5
s 16
f 97/209/46 98/210/47 94/211/2 93/212/49

