{"asset":{"generator":"FBX2glTF","version":"2.0"},"scene":0,"buffers":[{"byteLength":82156,"uri":"gongfu.bin"}],"bufferViews":[{"buffer":0,"byteLength":68,"byteOffset":0},{"buffer":0,"byteLength":272,"byteOffset":68},{"buffer":0,"byteLength":272,"byteOffset":340},{"buffer":0,"byteLength":272,"byteOffset":612},{"buffer":0,"byteLength":68,"byteOffset":884},{"buffer":0,"byteLength":204,"byteOffset":952},{"buffer":0,"byteLength":272,"byteOffset":1156},{"buffer":0,"byteLength":272,"byteOffset":1428},{"buffer":0,"byteLength":272,"byteOffset":1700},{"buffer":0,"byteLength":272,"byteOffset":1972},{"buffer":0,"byteLength":272,"byteOffset":2244},{"buffer":0,"byteLength":272,"byteOffset":2516},{"buffer":0,"byteLength":272,"byteOffset":2788},{"buffer":0,"byteLength":272,"byteOffset":3060},{"buffer":0,"byteLength":272,"byteOffset":3332},{"buffer":0,"byteLength":272,"byteOffset":3604},{"buffer":0,"byteLength":36,"byteOffset":3876},{"buffer":0,"byteLength":108,"byteOffset":3912},{"buffer":0,"byteLength":144,"byteOffset":4020},{"buffer":0,"byteLength":144,"byteOffset":4164},{"buffer":0,"byteLength":144,"byteOffset":4308},{"buffer":0,"byteLength":144,"byteOffset":4452},{"buffer":0,"byteLength":144,"byteOffset":4596},{"buffer":0,"byteLength":144,"byteOffset":4740},{"buffer":0,"byteLength":144,"byteOffset":4884},{"buffer":0,"byteLength":144,"byteOffset":5028},{"buffer":0,"byteLength":144,"byteOffset":5172},{"buffer":0,"byteLength":144,"byteOffset":5316},{"buffer":0,"byteLength":52,"byteOffset":5460},{"buffer":0,"byteLength":156,"byteOffset":5512},{"buffer":0,"byteLength":156,"byteOffset":5668},{"buffer":0,"byteLength":156,"byteOffset":5824},{"buffer":0,"byteLength":208,"byteOffset":5980},{"buffer":0,"byteLength":208,"byteOffset":6188},{"buffer":0,"byteLength":208,"byteOffset":6396},{"buffer":0,"byteLength":208,"byteOffset":6604},{"buffer":0,"byteLength":208,"byteOffset":6812},{"buffer":0,"byteLength":208,"byteOffset":7020},{"buffer":0,"byteLength":208,"byteOffset":7228},{"buffer":0,"byteLength":208,"byteOffset":7436},{"buffer":0,"byteLength":208,"byteOffset":7644},{"buffer":0,"byteLength":208,"byteOffset":7852},{"buffer":0,"byteLength":7062,"byteOffset":8060,"target":34963},{"buffer":0,"byteLength":14172,"byteOffset":15124,"target":34962},{"buffer":0,"byteLength":14172,"byteOffset":29296,"target":34962},{"buffer":0,"byteLength":9448,"byteOffset":43468,"target":34962},{"buffer":0,"byteLength":9448,"byteOffset":52916,"target":34962},{"buffer":0,"byteLength":18896,"byteOffset":62364,"target":34962},{"buffer":0,"byteLength":896,"byteOffset":81260}],"scenes":[{"name":"Root Scene","nodes":[0]}],"accessors":[{"componentType":5126,"type":"SCALAR","count":17,"bufferView":0,"byteOffset":0,"min":[0],"max":[0.666666686534882]},{"componentType":5126,"type":"VEC4","count":17,"bufferView":1,"byteOffset":0},{"componentType":5126,"type":"VEC4","count":17,"bufferView":2,"byteOffset":0},{"componentType":5126,"type":"VEC4","count":17,"bufferView":3,"byteOffset":0},{"componentType":5126,"type":"SCALAR","count":17,"bufferView":4,"byteOffset":0,"min":[0],"max":[0.666666686534882]},{"componentType":5126,"type":"VEC3","count":17,"bufferView":5,"byteOffset":0},{"componentType":5126,"type":"VEC4","count":17,"bufferView":6,"byteOffset":0},{"componentType":5126,"type":"VEC4","count":17,"bufferView":7,"byteOffset":0},{"componentType":5126,"type":"VEC4","count":17,"bufferView":8,"byteOffset":0},{"componentType":5126,"type":"VEC4","count":17,"bufferView":9,"byteOffset":0},{"componentType":5126,"type":"VEC4","count":17,"bufferView":10,"byteOffset":0},{"componentType":5126,"type":"VEC4","count":17,"bufferView":11,"byteOffset":0},{"componentType":5126,"type":"VEC4","count":17,"bufferView":12,"byteOffset":0},{"componentType":5126,"type":"VEC4","count":17,"bufferView":13,"byteOffset":0},{"componentType":5126,"type":"VEC4","count":17,"bufferView":14,"byteOffset":0},{"componentType":5126,"type":"VEC4","count":17,"bufferView":15,"byteOffset":0},{"componentType":5126,"type":"SCALAR","count":9,"bufferView":16,"byteOffset":0,"min":[0],"max":[0.333333343267441]},{"componentType":5126,"type":"VEC3","count":9,"bufferView":17,"byteOffset":0},{"componentType":5126,"type":"VEC4","count":9,"bufferView":18,"byteOffset":0},{"componentType":5126,"type":"VEC4","count":9,"bufferView":19,"byteOffset":0},{"componentType":5126,"type":"VEC4","count":9,"bufferView":20,"byteOffset":0},{"componentType":5126,"type":"VEC4","count":9,"bufferView":21,"byteOffset":0},{"componentType":5126,"type":"VEC4","count":9,"bufferView":22,"byteOffset":0},{"componentType":5126,"type":"VEC4","count":9,"bufferView":23,"byteOffset":0},{"componentType":5126,"type":"VEC4","count":9,"bufferView":24,"byteOffset":0},{"componentType":5126,"type":"VEC4","count":9,"bufferView":25,"byteOffset":0},{"componentType":5126,"type":"VEC4","count":9,"bufferView":26,"byteOffset":0},{"componentType":5126,"type":"VEC4","count":9,"bufferView":27,"byteOffset":0},{"componentType":5126,"type":"SCALAR","count":13,"bufferView":28,"byteOffset":0,"min":[0],"max":[0.5]},{"componentType":5126,"type":"VEC3","count":13,"bufferView":29,"byteOffset":0},{"componentType":5126,"type":"VEC3","count":13,"bufferView":30,"byteOffset":0},{"componentType":5126,"type":"VEC3","count":13,"bufferView":31,"byteOffset":0},{"componentType":5126,"type":"VEC4","count":13,"bufferView":32,"byteOffset":0},{"componentType":5126,"type":"VEC4","count":13,"bufferView":33,"byteOffset":0},{"componentType":5126,"type":"VEC4","count":13,"bufferView":34,"byteOffset":0},{"componentType":5126,"type":"VEC4","count":13,"bufferView":35,"byteOffset":0},{"componentType":5126,"type":"VEC4","count":13,"bufferView":36,"byteOffset":0},{"componentType":5126,"type":"VEC4","count":13,"bufferView":37,"byteOffset":0},{"componentType":5126,"type":"VEC4","count":13,"bufferView":38,"byteOffset":0},{"componentType":5126,"type":"VEC4","count":13,"bufferView":39,"byteOffset":0},{"componentType":5126,"type":"VEC4","count":13,"bufferView":40,"byteOffset":0},{"componentType":5126,"type":"VEC4","count":13,"bufferView":41,"byteOffset":0},{"componentType":5123,"type":"SCALAR","count":3531,"bufferView":42,"byteOffset":0},{"componentType":5126,"type":"VEC3","count":1181,"bufferView":43,"byteOffset":0,"min":[-0.00641942350193858,-0.00566326780244708,-0.0000494683772558346],"max":[0.0119789848104119,0.00566326780244708,0.0179204642772675]},{"componentType":5126,"type":"VEC3","count":1181,"bufferView":44,"byteOffset":0},{"componentType":5126,"type":"VEC2","count":1181,"bufferView":45,"byteOffset":0},{"componentType":5123,"type":"VEC4","count":1181,"bufferView":46,"byteOffset":0},{"componentType":5126,"type":"VEC4","count":1181,"bufferView":47,"byteOffset":0},{"componentType":5126,"type":"MAT4","count":14,"bufferView":48,"byteOffset":0}],"images":[{"name":"gongfu.jpg","uri":"gongfu.jpg"}],"samplers":[{}],"textures":[{"name":"贴图 #0","sampler":0,"source":0}],"materials":[{"name":"Material #37","alphaMode":"OPAQUE","extras":{"fromFBX":{"shadingModel":"","isTruePBR":false}},"pbrMetallicRoughness":{"baseColorTexture":{"index":0,"texCoord":0},"baseColorFactor":[1,1,1,1],"metallicFactor":0.200000002980232,"roughnessFactor":0.800000011920929}}],"meshes":[{"name":"Cone002","primitives":[{"material":0,"mode":4,"attributes":{"JOINTS_0":46,"NORMAL":44,"POSITION":43,"TEXCOORD_0":45,"WEIGHTS_0":47},"indices":42}]}],"skins":[{"joints":[6,4,8,12,13,23,3,9,18,17,1,16,22,21],"inverseBindMatrices":48,"skeleton":6}],"animations":[{"name":"wait","channels":[{"sampler":0,"target":{"node":6,"path":"rotation"}},{"sampler":1,"target":{"node":9,"path":"rotation"}},{"sampler":2,"target":{"node":13,"path":"rotation"}}],"samplers":[{"input":0,"interpolation":"LINEAR","output":1},{"input":0,"interpolation":"LINEAR","output":2},{"input":0,"interpolation":"LINEAR","output":3}]},{"name":"walk","channels":[{"sampler":0,"target":{"node":2,"path":"translation"}},{"sampler":1,"target":{"node":4,"path":"rotation"}},{"sampler":2,"target":{"node":6,"path":"rotation"}},{"sampler":3,"target":{"node":9,"path":"rotation"}},{"sampler":4,"target":{"node":13,"path":"rotation"}},{"sampler":5,"target":{"node":16,"path":"rotation"}},{"sampler":6,"target":{"node":17,"path":"rotation"}},{"sampler":7,"target":{"node":18,"path":"rotation"}},{"sampler":8,"target":{"node":21,"path":"rotation"}},{"sampler":9,"target":{"node":22,"path":"rotation"}},{"sampler":10,"target":{"node":23,"path":"rotation"}}],"samplers":[{"input":4,"interpolation":"LINEAR","output":5},{"input":4,"interpolation":"LINEAR","output":6},{"input":4,"interpolation":"LINEAR","output":7},{"input":4,"interpolation":"LINEAR","output":8},{"input":4,"interpolation":"LINEAR","output":9},{"input":4,"interpolation":"LINEAR","output":10},{"input":4,"interpolation":"LINEAR","output":11},{"input":4,"interpolation":"LINEAR","output":12},{"input":4,"interpolation":"LINEAR","output":13},{"input":4,"interpolation":"LINEAR","output":14},{"input":4,"interpolation":"LINEAR","output":15}]},{"name":"dead","channels":[{"sampler":0,"target":{"node":2,"path":"translation"}},{"sampler":1,"target":{"node":4,"path":"rotation"}},{"sampler":2,"target":{"node":6,"path":"rotation"}},{"sampler":3,"target":{"node":9,"path":"rotation"}},{"sampler":4,"target":{"node":13,"path":"rotation"}},{"sampler":5,"target":{"node":16,"path":"rotation"}},{"sampler":6,"target":{"node":17,"path":"rotation"}},{"sampler":7,"target":{"node":18,"path":"rotation"}},{"sampler":8,"target":{"node":21,"path":"rotation"}},{"sampler":9,"target":{"node":22,"path":"rotation"}},{"sampler":10,"target":{"node":23,"path":"rotation"}}],"samplers":[{"input":16,"interpolation":"LINEAR","output":17},{"input":16,"interpolation":"LINEAR","output":18},{"input":16,"interpolation":"LINEAR","output":19},{"input":16,"interpolation":"LINEAR","output":20},{"input":16,"interpolation":"LINEAR","output":21},{"input":16,"interpolation":"LINEAR","output":22},{"input":16,"interpolation":"LINEAR","output":23},{"input":16,"interpolation":"LINEAR","output":24},{"input":16,"interpolation":"LINEAR","output":25},{"input":16,"interpolation":"LINEAR","output":26},{"input":16,"interpolation":"LINEAR","output":27}]},{"name":"jump","channels":[{"sampler":0,"target":{"node":1,"path":"translation"}},{"sampler":1,"target":{"node":2,"path":"translation"}},{"sampler":2,"target":{"node":4,"path":"translation"}},{"sampler":3,"target":{"node":4,"path":"rotation"}},{"sampler":4,"target":{"node":6,"path":"rotation"}},{"sampler":5,"target":{"node":9,"path":"rotation"}},{"sampler":6,"target":{"node":13,"path":"rotation"}},{"sampler":7,"target":{"node":16,"path":"rotation"}},{"sampler":8,"target":{"node":17,"path":"rotation"}},{"sampler":9,"target":{"node":18,"path":"rotation"}},{"sampler":10,"target":{"node":21,"path":"rotation"}},{"sampler":11,"target":{"node":22,"path":"rotation"}},{"sampler":12,"target":{"node":23,"path":"rotation"}}],"samplers":[{"input":28,"interpolation":"LINEAR","output":29},{"input":28,"interpolation":"LINEAR","output":30},{"input":28,"interpolation":"LINEAR","output":31},{"input":28,"interpolation":"LINEAR","output":32},{"input":28,"interpolation":"LINEAR","output":33},{"input":28,"interpolation":"LINEAR","output":34},{"input":28,"interpolation":"LINEAR","output":35},{"input":28,"interpolation":"LINEAR","output":36},{"input":28,"interpolation":"LINEAR","output":37},{"input":28,"interpolation":"LINEAR","output":38},{"input":28,"interpolation":"LINEAR","output":39},{"input":28,"interpolation":"LINEAR","output":40},{"input":28,"interpolation":"LINEAR","output":41}]}],"nodes":[{"name":"RootNode","translation":[0,0,0],"rotation":[0,0,0,1],"scale":[1,1,1],"children":[1,26,27,28,29,30,31,32,33,34]},{"name":"Bip001","translation":[-3.15544942782614e-32,0.0563405007123947,-4.46258185959891e-9],"rotation":[-0.500000476837158,-0.499999493360519,-0.499999493360519,0.500000476837158],"scale":[2.53999996185303,2.53999996185303,2.53999996185303],"children":[2,3]},{"name":"Bip001 Footsteps","translation":[0,0,-0.0212667919695377],"rotation":[-4.90042178820108e-33,-3.81534095271427e-33,0.707106113433838,0.707107484340668],"scale":[1,1,1]},{"name":"Bip001 Pelvis","translation":[0,0,0],"rotation":[-0.5,-0.5,-0.499999314546585,0.500000715255737],"scale":[1,0.999999940395355,0.999999940395355],"children":[4,16,21]},{"name":"Bip001 Spine","translation":[0.0219682585448027,-0.0000351930029864889,3.05143821321963e-8],"rotation":[-0.0000020852928628301,-6.98530470799597e-7,0.00742668798193336,0.999972403049469],"scale":[1,0.999999940395355,0.999999940395355],"children":[5]},{"name":"Bip001 Neck","translation":[0.0442041866481304,-0.0000090494004325592,-2.50992109041004e-11],"rotation":[-1.74304997925491e-14,1.77635673352113e-15,8.67361634590827e-19,1],"scale":[1.00000011920929,1.00000011920929,1],"children":[6,8,12]},{"name":"Bip001 Head","translation":[0.0113645745441318,1.38777874976217e-19,-1.42108530740757e-16],"rotation":[-0.00020204289467074,-0.0272068288177252,-0.00742468563839793,0.999602258205414],"scale":[1.00000011920929,1.00000011920929,1],"children":[7]},{"name":"Bip001 HeadNub","translation":[0.106764525175095,-7.45058043039037e-11,0],"rotation":[-1.06581418834345e-14,6.99501810846895e-18,-6.61744490042422e-24,1],"scale":[1,0.999999940395355,1]},{"name":"Bip001 L Clavicle","translation":[1.77635679969558e-17,0.00000903770342119969,0.00425040302798152],"rotation":[0.632981240749359,-0.000253104022704065,0.774167001247406,0.000307360838633031],"scale":[1.00000011920929,1.00000011920929,1.00000011920929],"children":[9]},{"name":"Bip001 L UpperArm","translation":[0.032181654125452,3.72529021519519e-11,0],"rotation":[0.0221304185688496,0.465268284082413,0.0372480899095535,0.88410872220993],"scale":[1,1,0.999999940395355],"children":[10]},{"name":"Bip001 L Forearm","translation":[0.0287644434720278,-1.11022299980974e-18,0],"rotation":[2.4361213502238e-18,5.90323068976634e-17,-0.0998334288597107,0.995004177093506],"scale":[0.999999940395355,1,1.00000011920929],"children":[11]},{"name":"Bip001 L Hand","translation":[0.0287644546478987,5.9604643443123e-10,-4.76837147544984e-9],"rotation":[-0.706825196743011,-1.82495481873593e-17,-8.42584866228358e-18,0.70738822221756],"scale":[1,0.999999940395355,1.00000011920929]},{"name":"Bip001 R Clavicle","translation":[0,0.00000906124660104979,-0.00425040256232023],"rotation":[-0.632981240749359,0.000250956742092967,0.774167060852051,0.000309116439893842],"scale":[1.00000011920929,1.00000011920929,1.00000011920929],"children":[13]},{"name":"Bip001 R UpperArm","translation":[0.032181654125452,-3.72529021519519e-11,1.77635679969558e-17],"rotation":[-0.0225889403373003,-0.474045693874359,0.0369177907705307,0.879435896873474],"scale":[1.00000011920929,1.00000023841858,1.00000011920929],"children":[14]},{"name":"Bip001 R Forearm","translation":[0.0279489420354366,-1.11022299980974e-18,0],"rotation":[-6.70146122165093e-18,-5.97445011332654e-18,-0.0998334288597107,0.995004177093506],"scale":[1.00000011920929,1,1.00000011920929],"children":[15]},{"name":"Bip001 R Hand","translation":[0.0279489420354366,5.9604643443123e-10,8.88178399847791e-18],"rotation":[0.706825196743011,8.39740057684938e-19,8.97010041811897e-18,0.70738822221756],"scale":[1.00000011920929,1.00000011920929,1.00000011920929]},{"name":"Bip001 L Thigh","translation":[-2.62260435590633e-8,2.74607963035578e-8,0.019102405756712],"rotation":[0.0499794036149979,0.998750269412994,-6.51668756290746e-7,8.51267316193116e-7],"scale":[1,0.999999940395355,0.999999940395355],"children":[17]},{"name":"Bip001 L Calf","translation":[0.0074394391849637,0,-1.19209286886246e-9],"rotation":[-2.21270510935347e-22,-8.42098224706247e-23,-0.0998324826359749,0.995004236698151],"scale":[1,1,0.999999940395355],"children":[18]},{"name":"Bip001 L Foot","translation":[0.00743943965062499,1.49011608607807e-10,1.19209286886246e-9],"rotation":[-3.5974025536234e-8,1.22588772910603e-7,0.0499779768288136,0.998750329017639],"scale":[1,1,1],"children":[19]},{"name":"Bip001 L Toe0","translation":[0.00646224478259683,0.0254194606095552,-4.44089199923895e-18],"rotation":[-1.54543080554959e-8,-1.54543080554959e-8,0.70710676908493,0.70710676908493],"scale":[0.999999940395355,1,0.999999940395355],"children":[20]},{"name":"Bip001 L Toe0Nub","translation":[0.000842900248244405,7.45058043039037e-11,1.19209286886246e-9],"rotation":[9.55340403241748e-16,-8.16263069238247e-19,1,1.83758927467374e-15],"scale":[-0.999999940395355,-1,-0.999999940395355]},{"name":"Bip001 R Thigh","translation":[2.62260435590633e-8,-2.55216434652539e-8,-0.019102405756712],"rotation":[0.0499791689217091,0.998750269412994,-6.55693440876348e-7,7.70845758779615e-7],"scale":[1,0.999999940395355,0.999999940395355],"children":[22]},{"name":"Bip001 R Calf","translation":[0.00743943685665727,0,-1.19209286886246e-9],"rotation":[1.71766983710494e-23,1.71194011946926e-22,-0.0998334363102913,0.995004177093506],"scale":[1,1,1],"children":[23]},{"name":"Bip001 R Foot","translation":[0.0074394391849637,7.45058043039037e-11,1.19209286886246e-9],"rotation":[-2.1847741393799e-9,4.3656758208499e-8,0.0499791614711285,0.998750269412994],"scale":[1,1,1],"children":[24]},{"name":"Bip001 R Toe0","translation":[0.00646224478259683,0.0263726729899645,0],"rotation":[-1.54543080554959e-8,-1.54543080554959e-8,0.70710676908493,0.70710676908493],"scale":[0.999999940395355,1,0.999999940395355],"children":[25]},{"name":"Bip001 R Toe0Nub","translation":[0.000842900248244405,0,0],"rotation":[3.36941036530965e-19,9.55341038516458e-16,-1.77635705115849e-15,1],"scale":[0.999999940395355,1,0.999999940395355]},{"name":"","translation":[0.00236570159904659,-0.0247237868607044,-0.00651132268831134],"rotation":[-0.5,0.5,0.5,0.5],"scale":[2.53999996185303,2.53999996185303,2.53999996185303]},{"name":"　","translation":[0.00236570159904659,-0.0247237868607044,-0.00651132268831134],"rotation":[-0.5,0.5,0.5,0.5],"scale":[2.53999996185303,2.53999996185303,2.53999996185303]},{"name":"Plane001","translation":[-0.00125746848061681,0.00997933559119701,-0.00385690433904529],"rotation":[-0.5,0.5,0.5,0.5],"scale":[2.53999996185303,2.53999996185303,2.53999996185303]},{"name":"　","translation":[0.00236570159904659,-0.0247237868607044,-0.00651132268831134],"rotation":[-0.5,0.5,0.5,0.5],"scale":[2.53999996185303,2.53999996185303,2.53999996185303]},{"name":"","translation":[0.00236570159904659,-0.0247237868607044,-0.00651132268831134],"rotation":[-0.5,0.5,0.5,0.5],"scale":[2.53999996185303,2.53999996185303,2.53999996185303]},{"name":"","translation":[-0.0316744595766068,-0.0247237868607044,-0.0065113240852952],"rotation":[-0.5,0.5,0.5,0.5],"scale":[2.53999996185303,2.53999996185303,2.53999996185303]},{"name":"　","translation":[-0.0316744595766068,-0.0247237868607044,-0.0065113240852952],"rotation":[-0.5,0.5,0.5,0.5],"scale":[2.53999996185303,2.53999996185303,2.53999996185303]},{"name":"Cone002","translation":[0,0,0.00542694563046098],"rotation":[-0.5,0.5,0.5,0.5],"scale":[36.5952415466309,36.5952415466309,36.5952415466309],"mesh":0,"skin":0},{"name":"Cylinder002","translation":[-0.000970117747783661,0.00302488496527076,-0.00229439977556467],"rotation":[-0.5,0.5,0.5,0.5],"scale":[1.68684923648834,2.13909721374512,0.569555044174194]}]}